<svg xmlns="http://www.w3.org/2000/svg" viewBox="0 0 300 80" width="300" height="80">
  <rect x="0" y="78" width="300" height="2" fill="#1e3a8a"/>
<rect x="7.0" y="35.0" width="50.0" height="5.0" fill="#1e3a8a"/>
<rect x="10.0" y="40.0" width="44.0" height="38.0" fill="#1e3a8a"/>
<rect x="17.0" y="43.8" width="13.4" height="8.6" fill="#7a1240"/>
<rect x="33.5" y="43.8" width="13.4" height="8.6" fill="#7a1240"/>
<rect x="17.0" y="54.7" width="13.4" height="8.6" fill="#7a1240"/>
<rect x="33.5" y="54.7" width="13.4" height="8.6" fill="#7a1240"/>
<rect x="17.0" y="65.6" width="13.4" height="8.6" fill="#7a1240"/>
<rect x="33.5" y="65.6" width="13.4" height="8.6" fill="#7a1240"/>
<rect x="63.0" y="17.0" width="58.0" height="5.0" fill="#1e3a8a"/>
<rect x="66.0" y="22.0" width="52.0" height="56.0" fill="#1e3a8a"/>
<rect x="74.3" y="27.6" width="9.4" height="8.7" fill="#7a1240"/>
<rect x="87.3" y="27.6" width="9.4" height="8.7" fill="#7a1240"/>
<rect x="100.3" y="27.6" width="9.4" height="8.7" fill="#7a1240"/>
<rect x="74.3" y="39.6" width="9.4" height="8.7" fill="#7a1240"/>
<rect x="87.3" y="39.6" width="9.4" height="8.7" fill="#7a1240"/>
<rect x="100.3" y="39.6" width="9.4" height="8.7" fill="#7a1240"/>
<rect x="74.3" y="51.7" width="9.4" height="8.7" fill="#7a1240"/>
<rect x="87.3" y="51.7" width="9.4" height="8.7" fill="#7a1240"/>
<rect x="100.3" y="51.7" width="9.4" height="8.7" fill="#7a1240"/>
<rect x="74.3" y="63.7" width="9.4" height="8.7" fill="#7a1240"/>
<rect x="87.3" y="63.7" width="9.4" height="8.7" fill="#7a1240"/>
<rect x="100.3" y="63.7" width="9.4" height="8.7" fill="#7a1240"/>
<rect x="129.0" y="29.0" width="46.0" height="5.0" fill="#1e3a8a"/>
<rect x="132.0" y="34.0" width="40.0" height="44.0" fill="#1e3a8a"/>
<rect x="138.4" y="38.4" width="12.2" height="10.0" fill="#7a1240"/>
<rect x="153.4" y="38.4" width="12.2" height="10.0" fill="#7a1240"/>
<rect x="138.4" y="51.0" width="12.2" height="10.0" fill="#7a1240"/>
<rect x="153.4" y="51.0" width="12.2" height="10.0" fill="#7a1240"/>
<rect x="138.4" y="63.6" width="12.2" height="10.0" fill="#7a1240"/>
<rect x="153.4" y="63.6" width="12.2" height="10.0" fill="#7a1240"/>
<rect x="181.0" y="41.0" width="54.0" height="5.0" fill="#1e3a8a"/>
<rect x="184.0" y="46.0" width="48.0" height="32.0" fill="#1e3a8a"/>
<rect x="191.7" y="49.2" width="8.6" height="11.8" fill="#7a1240"/>
<rect x="203.7" y="49.2" width="8.6" height="11.8" fill="#7a1240"/>
<rect x="215.7" y="49.2" width="8.6" height="11.8" fill="#7a1240"/>
<rect x="191.7" y="63.0" width="8.6" height="11.8" fill="#7a1240"/>
<rect x="203.7" y="63.0" width="8.6" height="11.8" fill="#7a1240"/>
<rect x="215.7" y="63.0" width="8.6" height="11.8" fill="#7a1240"/>
<rect x="241.0" y="23.0" width="52.0" height="5.0" fill="#1e3a8a"/>
<rect x="244.0" y="28.0" width="46.0" height="50.0" fill="#1e3a8a"/>
<rect x="251.4" y="33.0" width="14.0" height="7.8" fill="#7a1240"/>
<rect x="268.6" y="33.0" width="14.0" height="7.8" fill="#7a1240"/>
<rect x="251.4" y="43.8" width="14.0" height="7.8" fill="#7a1240"/>
<rect x="268.6" y="43.8" width="14.0" height="7.8" fill="#7a1240"/>
<rect x="251.4" y="54.5" width="14.0" height="7.8" fill="#7a1240"/>
<rect x="268.6" y="54.5" width="14.0" height="7.8" fill="#7a1240"/>
<rect x="251.4" y="65.2" width="14.0" height="7.8" fill="#7a1240"/>
<rect x="268.6" y="65.2" width="14.0" height="7.8" fill="#7a1240"/>
</svg>
